<svg width="43" height="34" viewBox="0 0 43 34" fill="none" xmlns="http://www.w3.org/2000/svg">
<path d="M0.305664 34V22.625C0.305664 18.375 1.06295 14.4583 2.57753 10.875C4.0921 7.29167 6.65846 3.66667 10.2766 0L16.8398 5.125C14.7362 7.20834 13.1375 9.16667 12.0436 11C10.9498 12.8333 10.2345 14.7083 9.89797 16.625H17.9757V34H0.305664ZM24.9175 34V22.625C24.9175 18.375 25.6748 14.4583 27.1894 10.875C28.7039 7.29167 31.2703 3.66667 34.8885 0L41.4516 5.125C39.348 7.20834 37.7493 9.16667 36.6555 11C35.5616 12.8333 34.8464 14.7083 34.5098 16.625H42.5875V34H24.9175Z" fill="#F5F5F5"/>
</svg>
