<svg width="43" height="34" viewBox="0 0 43 34" fill="none" xmlns="http://www.w3.org/2000/svg">
<path d="M0.0908203 34V22.625C0.0908203 18.375 0.848108 14.4583 2.36268 10.875C3.87726 7.29167 6.44362 3.66667 10.0618 0L16.6249 5.125C14.5214 7.20834 12.9226 9.16667 11.8288 11C10.7349 12.8333 10.0197 14.7083 9.68313 16.625H17.7609V34H0.0908203ZM24.7027 34V22.625C24.7027 18.375 25.4599 14.4583 26.9745 10.875C28.4891 7.29167 31.0555 3.66667 34.6736 0L41.2368 5.125C39.1332 7.20834 37.5345 9.16667 36.4406 11C35.3468 12.8333 34.6315 14.7083 34.295 16.625H42.3727V34H24.7027Z" fill="#F5F5F5"/>
</svg>
