<svg width="105" height="18" viewBox="0 0 105 18" fill="none" xmlns="http://www.w3.org/2000/svg">
<path d="M13.3585 15.75C13.2406 15.7505 13.1243 15.7222 13.0194 15.6675L9.26022 13.665L5.501 15.6675C5.37893 15.7328 5.2413 15.762 5.10376 15.7517C4.96622 15.7413 4.83428 15.692 4.72294 15.6091C4.6116 15.5263 4.52533 15.4134 4.47394 15.2832C4.42254 15.1529 4.40808 15.0107 4.4322 14.8725L5.16931 10.65L2.13245 7.65C2.0377 7.55379 1.97049 7.43315 1.93802 7.30102C1.90556 7.16889 1.90907 7.03026 1.94818 6.9C1.9909 6.76671 2.06948 6.64827 2.17502 6.55812C2.28055 6.46797 2.40881 6.40973 2.54523 6.39L6.7467 5.7675L8.59683 1.92C8.65718 1.7932 8.75142 1.68626 8.86875 1.61143C8.98608 1.5366 9.12175 1.49692 9.26022 1.49692C9.39868 1.49692 9.53435 1.5366 9.65168 1.61143C9.76901 1.68626 9.86325 1.7932 9.92361 1.92L11.7958 5.76L15.9973 6.3825C16.1337 6.40223 16.262 6.46047 16.3675 6.55062C16.4731 6.64077 16.5516 6.75921 16.5944 6.8925C16.6335 7.02276 16.637 7.16139 16.6045 7.29352C16.5721 7.42565 16.5048 7.54629 16.4101 7.6425L13.3732 10.6425L14.1103 14.865C14.1367 15.0056 14.1229 15.1509 14.0706 15.2838C14.0184 15.4167 13.9299 15.5316 13.8155 15.615C13.682 15.7102 13.5213 15.7576 13.3585 15.75Z" fill="#5C17E5"/>
<path d="M34.9801 15.75C34.8622 15.7505 34.7459 15.7222 34.641 15.6675L30.8818 13.665L27.1226 15.6675C27.0005 15.7328 26.8629 15.762 26.7253 15.7517C26.5878 15.7413 26.4559 15.692 26.3445 15.6091C26.2332 15.5263 26.1469 15.4134 26.0955 15.2832C26.0441 15.1529 26.0297 15.0107 26.0538 14.8725L26.7909 10.65L23.754 7.65C23.6593 7.55379 23.5921 7.43315 23.5596 7.30102C23.5271 7.16889 23.5307 7.03026 23.5698 6.9C23.6125 6.76671 23.6911 6.64827 23.7966 6.55812C23.9021 6.46797 24.0304 6.40973 24.1668 6.39L28.3683 5.7675L30.2184 1.92C30.2788 1.7932 30.373 1.68626 30.4903 1.61143C30.6077 1.5366 30.7433 1.49692 30.8818 1.49692C31.0203 1.49692 31.1559 1.5366 31.2733 1.61143C31.3906 1.68626 31.4848 1.7932 31.5452 1.92L33.4174 5.76L37.6189 6.3825C37.7553 6.40223 37.8836 6.46047 37.9891 6.55062C38.0946 6.64077 38.1732 6.75921 38.216 6.8925C38.2551 7.02276 38.2586 7.16139 38.2261 7.29352C38.1936 7.42565 38.1264 7.54629 38.0317 7.6425L34.9948 10.6425L35.7319 14.865C35.7582 15.0056 35.7445 15.1509 35.6922 15.2838C35.64 15.4167 35.5514 15.5316 35.4371 15.615C35.3036 15.7102 35.1429 15.7576 34.9801 15.75Z" fill="#5C17E5"/>
<path d="M56.6021 15.75C56.4843 15.7505 56.368 15.7222 56.2631 15.6675L52.5039 13.665L48.7447 15.6675C48.6226 15.7328 48.485 15.762 48.3474 15.7517C48.2099 15.7413 48.0779 15.692 47.9666 15.6091C47.8553 15.5263 47.769 15.4134 47.7176 15.2832C47.6662 15.1529 47.6517 15.0107 47.6759 14.8725L48.413 10.65L45.3761 7.65C45.2814 7.55379 45.2141 7.43315 45.1817 7.30102C45.1492 7.16889 45.1527 7.03026 45.1918 6.9C45.2345 6.76671 45.3131 6.64827 45.4187 6.55812C45.5242 6.46797 45.6525 6.40973 45.7889 6.39L49.9904 5.7675L51.8405 1.92C51.9008 1.7932 51.9951 1.68626 52.1124 1.61143C52.2297 1.5366 52.3654 1.49692 52.5039 1.49692C52.6423 1.49692 52.778 1.5366 52.8953 1.61143C53.0127 1.68626 53.1069 1.7932 53.1673 1.92L55.0395 5.76L59.241 6.3825C59.3774 6.40223 59.5056 6.46047 59.6112 6.55062C59.7167 6.64077 59.7953 6.75921 59.838 6.8925C59.8771 7.02276 59.8806 7.16139 59.8482 7.29352C59.8157 7.42565 59.7485 7.54629 59.6537 7.6425L56.6169 10.6425L57.354 14.865C57.3803 15.0056 57.3665 15.1509 57.3143 15.2838C57.262 15.4167 57.1735 15.5316 57.0592 15.615C56.9257 15.7102 56.765 15.7576 56.6021 15.75Z" fill="#5C17E5"/>
<path d="M78.2237 15.75C78.1059 15.7505 77.9896 15.7222 77.8847 15.6675L74.1254 13.665L70.3662 15.6675C70.2442 15.7328 70.1065 15.762 69.969 15.7517C69.8315 15.7413 69.6995 15.692 69.5882 15.6091C69.4768 15.5263 69.3906 15.4134 69.3392 15.2832C69.2878 15.1529 69.2733 15.0107 69.2974 14.8725L70.0345 10.65L66.9977 7.65C66.9029 7.55379 66.8357 7.43315 66.8033 7.30102C66.7708 7.16889 66.7743 7.03026 66.8134 6.9C66.8561 6.76671 66.9347 6.64827 67.0403 6.55812C67.1458 6.46797 67.274 6.40973 67.4105 6.39L71.6119 5.7675L73.4621 1.92C73.5224 1.7932 73.6167 1.68626 73.734 1.61143C73.8513 1.5366 73.987 1.49692 74.1254 1.49692C74.2639 1.49692 74.3996 1.5366 74.5169 1.61143C74.6342 1.68626 74.7285 1.7932 74.7888 1.92L76.6611 5.76L80.8626 6.3825C80.999 6.40223 81.1272 6.46047 81.2328 6.55062C81.3383 6.64077 81.4169 6.75921 81.4596 6.8925C81.4987 7.02276 81.5022 7.16139 81.4698 7.29352C81.4373 7.42565 81.3701 7.54629 81.2753 7.6425L78.2385 10.6425L78.9756 14.865C79.0019 15.0056 78.9881 15.1509 78.9359 15.2838C78.8836 15.4167 78.7951 15.5316 78.6807 15.615C78.5473 15.7102 78.3865 15.7576 78.2237 15.75Z" fill="#5C17E5"/>
<path d="M99.8453 15.75C99.7274 15.7505 99.6112 15.7222 99.5062 15.6675L95.747 13.665L91.9878 15.6675C91.8657 15.7328 91.7281 15.762 91.5906 15.7517C91.453 15.7413 91.3211 15.692 91.2098 15.6091C91.0984 15.5263 91.0121 15.4134 90.9608 15.2832C90.9094 15.1529 90.8949 15.0107 90.919 14.8725L91.6561 10.65L88.6193 7.65C88.5245 7.55379 88.4573 7.43315 88.4248 7.30102C88.3924 7.16889 88.3959 7.03026 88.435 6.9C88.4777 6.76671 88.5563 6.64827 88.6618 6.55812C88.7674 6.46797 88.8956 6.40973 89.032 6.39L93.2335 5.7675L95.0836 1.92C95.144 1.7932 95.2382 1.68626 95.3556 1.61143C95.4729 1.5366 95.6086 1.49692 95.747 1.49692C95.8855 1.49692 96.0212 1.5366 96.1385 1.61143C96.2558 1.68626 96.3501 1.7932 96.4104 1.92L98.2827 5.76L102.484 6.3825C102.621 6.40223 102.749 6.46047 102.854 6.55062C102.96 6.64077 103.038 6.75921 103.081 6.8925C103.12 7.02276 103.124 7.16139 103.091 7.29352C103.059 7.42565 102.992 7.54629 102.897 7.6425L99.8601 10.6425L100.597 14.865C100.623 15.0056 100.61 15.1509 100.557 15.2838C100.505 15.4167 100.417 15.5316 100.302 15.615C100.169 15.7102 100.008 15.7576 99.8453 15.75Z" fill="#5C17E5"/>
</svg>
