<svg width="65" height="64" viewBox="0 0 65 64" fill="none" xmlns="http://www.w3.org/2000/svg">
<g filter="url(#filter0_d_392_7904)">
<path fill-rule="evenodd" clip-rule="evenodd" d="M42.3828 32C42.3828 37.52 37.8928 42 32.3828 42L32.103 41.9962C26.7122 41.8478 22.3828 37.4264 22.3828 32C22.3828 26.49 26.8628 22 32.3828 22C37.8928 22 42.3828 26.49 42.3828 32ZM30.4028 28C30.1128 28.3 30.1128 28.77 30.4128 29.06L33.3628 32L30.4128 34.94C30.1128 35.23 30.1128 35.71 30.4028 36C30.7028 36.3 31.1728 36.3 31.4628 36L34.9528 32.53C35.0928 32.39 35.1728 32.2 35.1728 32C35.1728 31.8 35.0928 31.61 34.9528 31.47L31.4628 28C31.3228 27.85 31.1328 27.78 30.9428 27.78C30.7428 27.78 30.5528 27.85 30.4028 28Z" fill="#5C17E5"/>
</g>
<defs>
<filter id="filter0_d_392_7904" x="0.382812" y="0" width="64" height="64" filterUnits="userSpaceOnUse" color-interpolation-filters="sRGB">
<feFlood flood-opacity="0" result="BackgroundImageFix"/>
<feColorMatrix in="SourceAlpha" type="matrix" values="0 0 0 0 0 0 0 0 0 0 0 0 0 0 0 0 0 0 127 0" result="hardAlpha"/>
<feOffset/>
<feGaussianBlur stdDeviation="10"/>
<feColorMatrix type="matrix" values="0 0 0 0 0.411765 0 0 0 0 0.72549 0 0 0 0 0.615686 0 0 0 0.58 0"/>
<feBlend mode="normal" in2="BackgroundImageFix" result="effect1_dropShadow_392_7904"/>
<feBlend mode="normal" in="SourceGraphic" in2="effect1_dropShadow_392_7904" result="shape"/>
</filter>
</defs>
</svg>
