<svg width="24" height="24" viewBox="0 0 24 24" fill="none" xmlns="http://www.w3.org/2000/svg">
<path fill-rule="evenodd" clip-rule="evenodd" d="M18.6616 9.07607C18.6674 9.22598 18.6693 9.37582 18.6693 9.52572C18.6693 14.0705 15.4723 19.3171 9.62613 19.3171C7.83027 19.3171 6.16039 18.7447 4.75342 17.7704C5.00212 17.7976 5.25471 17.8181 5.51117 17.8181C7.00018 17.8181 8.37162 17.2661 9.45946 16.3394C8.06865 16.319 6.89424 15.3174 6.4892 13.9546C6.68365 13.9955 6.88389 14.016 7.08867 14.016C7.37743 14.016 7.65778 13.9752 7.92652 13.8934C6.4711 13.58 5.37486 12.19 5.37486 10.5207C5.37486 10.5002 5.37486 10.4934 5.37486 10.4797C5.8038 10.7318 6.29475 10.8885 6.81606 10.9089C5.96206 10.2889 5.40069 9.23278 5.40069 8.04038C5.40069 7.41352 5.55702 6.8207 5.83221 6.30967C7.39939 8.39466 9.74241 9.76424 12.3839 9.90733C12.3296 9.65522 12.3018 9.38955 12.3018 9.12382C12.3018 7.22279 13.7249 5.68286 15.4807 5.68286C16.3948 5.68286 17.2204 6.09856 17.7998 6.7663C18.5253 6.6164 19.2049 6.33024 19.8199 5.93505C19.5815 6.73907 19.0783 7.41348 18.4206 7.83593C19.064 7.75417 19.6778 7.57034 20.2469 7.29779C19.8199 7.98597 19.2824 8.5923 18.6616 9.07607Z" fill="#4B5563"/>
</svg>
